# xmcd CD Database Entry
#
# Track frame offsets:
# 225
# 11138
# 25540
# 38979
# 52648
# 64238
# 81529
# 94321
# 105616
# 118622
# 134232
# 152177
# 160751
# 170772
# 178384
# 193597
# 204522
# 216981
# 228044
# 240854
#
# Disc length: 3395 seconds
#
# Revision: 2
# Processed by: cddbd v1.4b41PL1 Copyright (c) Steve Scherf et al.
# Submitted via: tcd 2.0b
#
DISCID=170d4014
DTITLE=Rory Block - Woman in (E)motion
DYEAR=1900
DGENRE=
TTITLE0=My Train Is Coming
TTITLE1=Walking Blues
TTITLE2=That's No Way For Me To Get Along
TTITLE3=Canned Heat
TTITLE4=God's Gift To Women
TTITLE5=Gypsy Boy
TTITLE6=Bonnie Boy
TTITLE7=Future Blues
TTITLE8=Frankie and Albert
TTITLE9=Moon's Goin Down
TTITLE10=Me And The Devil - When You Got A Friend
TTITLE11=The Uncloudy Day
TTITLE12=The Thing I Love About That Man Of Mine
TTITLE13=Nobody Knows You When You're Down And Out
TTITLE14=Mississippi Blues
TTITLE15=Fixin' To Die
TTITLE16=Stagger Lee
TTITLE17=I Just Feel Like Going On
TTITLE18=Love My Blues Away
TTITLE19=Kindhearted Man
EXTD=
EXTT0=
EXTT1=
EXTT2=
EXTT3=
EXTT4=
EXTT5=
EXTT6=
EXTT7=
EXTT8=
EXTT9=
EXTT10=
EXTT11=
EXTT12=
EXTT13=
EXTT14=
EXTT15=
EXTT16=
EXTT17=
EXTT18=
EXTT19=
PLAYORDER=
